<svg xmlns="http://www.w3.org/2000/svg" aria-hidden="true" role="img" width="24" height="24" preserveAspectRatio="xMidYMid meet" viewBox="0 0 24 24"><path fill="white" d="M22.265 2.428a2.048 2.048 0 0 0-2.078-.324L2.266 9.339a2.043 2.043 0 0 0 .104 3.818l3.625 1.261l2.02 6.682a.998.998 0 0 0 .119.252c.008.012.019.02.027.033a.988.988 0 0 0 .211.215a.972.972 0 0 0 .07.05a.986.986 0 0 0 .31.136l.013.001l.006.003a1.022 1.022 0 0 0 .203.02l.018-.003a.993.993 0 0 0 .301-.052c.023-.008.042-.02.064-.03a.993.993 0 0 0 .205-.114a250.76 250.76 0 0 1 .152-.129l2.702-2.983l4.03 3.122a2.023 2.023 0 0 0 1.241.427a2.054 2.054 0 0 0 2.008-1.633l3.263-16.017a2.03 2.03 0 0 0-.693-1.97ZM9.37 14.736a.994.994 0 0 0-.272.506l-.31 1.504l-.784-2.593l4.065-2.117Zm8.302 5.304l-4.763-3.69a1.001 1.001 0 0 0-1.353.12l-.866.955l.306-1.487l7.083-7.083a1 1 0 0 0-1.169-1.593L6.745 12.554L3.02 11.191L20.999 4Z"/></svg>